# xmcd CD database file
#
# Track frame offsets:
#	150
#	16879
#	36315
#	54085
#	67512
#	86937
#	105521
#	124672
#	142617
#	154648
#	167253
#	183498
#	197305
#	210631
#	225345
#	237333
#	252912
#	265142
#	278532
#	293299
#
# Disc length: 4087 seconds
#
# Revision: 2
# Processed by: cddbd v1.5.2PL0 Copyright (c) Steve Scherf et al.
# Submitted via: CDex 1.70beta2
#
DISCID=ef0ff514
DTITLE=Various Artist - Legends Of Line Dancing - CD3
DYEAR=2006
DGENRE=Country
TTITLE0=The Driver Brothers/Line Up And Dance
TTITLE1=Blue Ridge Mountain Band/Walking In Memphis
TTITLE2=Blue Ridge mountain Band/Only Yesterday
TTITLE3=The Nashville Set/Twisting The Nigth Away
TTITLE4=Blue Ridge Mountain Band/Coward Of The Country
TTITLE5=Blue Ridge Mountain Band/Islands In The Stream
TTITLE6=The Nashville Set/Lyin' Eyes
TTITLE7=Blue Ridge Mountain Band/The Last Thing On My Mind
TTITLE8=Blue Ridge Mountain Band/King Of The Road
TTITLE9=Blue Ridge Mountain Band/Crazy
TTITLE10=The Nashville Set/Thank God I'm A Country Boy
TTITLE11=Blue Ridge Mountain Band/If I Said You Had A Beautiful Body
TTITLE12=The Dockery Boys/I Don't Care If You Love Me Anymore
TTITLE13=Blue Ridge Mountain Band/I Recall A Gypsy Woman
TTITLE14=Blue Ridge Mountain Band/The Most Beautiful Girl In The World
TTITLE15=The Nashville Set/Blanket On The Ground
TTITLE16=Blue Ridge Mountain Band/Your Cheatin' Heart
TTITLE17=The Nashville Set/I'm Gonna Be A Country Boy Again
TTITLE18=George Moody and The Country Squires/The Tennessee Waltz
TTITLE19=The Nashville Set/The Rock and Roll Waltz
EXTD=YEAR: 2006
EXTT0=
EXTT1=
EXTT2=
EXTT3=
EXTT4=
EXTT5=
EXTT6=
EXTT7=
EXTT8=
EXTT9=
EXTT10=
EXTT11=
EXTT12=
EXTT13=
EXTT14=
EXTT15=
EXTT16=
EXTT17=
EXTT18=
EXTT19=
PLAYORDER=
